<svg class="icon" viewBox="0 0 1265 1024" version="1.1" xmlns="http://www.w3.org/2000/svg"
     width="200" height="200">
  <path
    d="M1236.523661 1024h-117.576748a19.678117 19.678117 0 0 1 0-39.356233h127.26822a19.678117 19.678117 0 0 1 0 39.356233zM1022.819313 1023.704828a19.678117 19.678117 0 0 1 0-39.356233h41.176459a19.678117 19.678117 0 1 1 0 39.356233zM932.299976 1023.704828c-220.936056 0-447.677156-3.34528-666.940572-6.542974l-127.907759-1.869421a19.678117 19.678117 0 0 1 0.295172-39.356233h0.295172l127.907759 1.820226c231.217872 3.394475 470.2086 6.887341 702.06601 6.493778a19.678117 19.678117 0 0 1 0 39.356234zM85.353831 1014.898871h-0.590343c-16.873985-0.491953-38.126351-0.688734-64.986981-0.491953H19.678117a19.678117 19.678117 0 0 1 0-39.356233c27.303387 0 49.195292 0 66.364448 0.491953a19.678117 19.678117 0 0 1-0.590343 39.356233z"
     />
  <path
    d="M1087.707903 759.772087a33.74797 33.74797 0 1 1 33.74797-33.74797 33.74797 33.74797 0 0 1-33.74797 33.74797z m0-62.576411a28.828441 28.828441 0 1 0 28.828441 28.828441 28.828441 28.828441 0 0 0-28.828441-28.828441z"
    fill="#FF6903"  />
  <path
    d="M208.342061 82.746481a23.61374 23.61374 0 1 1 23.61374-23.61374 23.61374 23.61374 0 0 1-23.61374 23.61374z m0-42.307951a18.694211 18.694211 0 1 0 18.694211 18.694211 18.694211 18.694211 0 0 0-18.694211-18.694211z"
    fill="#7AF4EB"  />
  <path
    d="M1038.906173 0l10.085035 20.465241 22.580639 3.24689-16.332837 15.939274 3.837233 22.482249-20.17007-10.626183-20.219265 10.626183 3.886429-22.482249-16.332837-15.939274 22.580639-3.24689L1038.906173 0zM143.896229 414.470334l3.000912-17.513524-12.74158-12.397214 17.611914-2.558155 7.822052-15.890079L167.263992 382.001441l17.56272 2.558155L172.183521 396.95681l3.000913 17.513524-15.742493-8.264809z m15.693298-13.823877l9.199519 4.919529-1.525054-10.331011 7.428489-7.231708-10.23262-1.475859-4.624358-9.29791-4.575162 9.29791-10.281816 1.475859 7.428489 7.231708-1.721835 10.23262z"
    fill="#FF6903"  />
  <path
    d="M1149.005237 286.119817h-4.91953v-4.919529a4.919529 4.919529 0 1 0-9.839058 0v4.919529h-4.919529a4.919529 4.919529 0 0 0 0 9.839059h4.919529v4.919529a4.919529 4.919529 0 1 0 9.839058 0v-4.919529h4.91953a4.919529 4.919529 0 0 0 0-9.839059zM98.784146 533.768917l-13.430315 9.740667 5.116311 15.840884h16.628008l5.165506-15.840884-13.47951-9.740667z"
    fill="#7AF4EB"  />
  <path
    d="M1210.794523 491.559356h-18.743406a4.034014 4.034014 0 0 0-1.279078 0.295172 5.608263 5.608263 0 0 0 1.131492-0.737929l13.381119-13.233534a4.427576 4.427576 0 0 0 0-6.247802l-2.066202-2.066202a4.427576 4.427576 0 0 0-6.247802 0l-13.233533 13.233533a4.083209 4.083209 0 0 0-0.688734 1.082297 5.755849 5.755849 0 0 0 0.245976-1.328273v-18.694211a4.427576 4.427576 0 0 0-4.427576-4.427576H1175.767475a4.427576 4.427576 0 0 0-4.427576 4.427576v18.694211a5.362287 5.362287 0 0 0 0 1.279077 4.083209 4.083209 0 0 0-0.737929-1.131491l-13.233534-13.233534a4.427576 4.427576 0 0 0-6.247802 0l-2.066202 2.066202a4.427576 4.427576 0 0 0 0 6.247803l13.233533 13.233533a4.083209 4.083209 0 0 0 1.131492 0.737929 4.329186 4.329186 0 0 0-1.328273-0.295171h-18.743406a4.476772 4.476772 0 0 0-4.427576 4.427576v2.902522a4.427576 4.427576 0 0 0 4.427576 4.427576h18.743406a3.935623 3.935623 0 0 0 1.279078-0.245976 4.083209 4.083209 0 0 0-1.131492 0.737929l-13.233533 13.233534a4.427576 4.427576 0 0 0 0 6.247802l2.066202 2.066202a4.427576 4.427576 0 0 0 6.247802 0l13.233533-13.233533a4.083209 4.083209 0 0 0 0.688735-1.082297 5.313092 5.313092 0 0 0 0 1.328273v18.694211a4.427576 4.427576 0 0 0 4.427576 4.427576h2.902522a4.427576 4.427576 0 0 0 4.427576-4.427576v-18.694211a5.362287 5.362287 0 0 0 0-1.279077 4.083209 4.083209 0 0 0 0.73793 1.131491l13.233533 13.233534a4.427576 4.427576 0 0 0 6.247802 0l2.066202-2.066203a4.427576 4.427576 0 0 0 0-6.247802l-13.233533-13.233533a4.083209 4.083209 0 0 0-1.131492-0.737929 4.230795 4.230795 0 0 0 1.328273 0h18.743406a4.427576 4.427576 0 0 0 4.427577-4.427577v-2.902522a4.476772 4.476772 0 0 0-4.624358-4.1816z m-25.187989 12.249628l-2.066203 2.017007a4.427576 4.427576 0 0 0-1.082296 4.378381 4.378381 4.378381 0 0 0-3.837233-2.361374H1175.767475a4.378381 4.378381 0 0 0-3.837232 2.361374 4.476772 4.476772 0 0 0-1.033102-4.427576l-2.066202-2.066203a4.378381 4.378381 0 0 0-4.378381-1.033101 4.378381 4.378381 0 0 0 2.361374-3.886428v-2.902522a4.378381 4.378381 0 0 0-2.312178-3.837233 4.27999 4.27999 0 0 0 4.378381-1.033101l2.066202-2.066202a4.378381 4.378381 0 0 0 1.082296-4.378381 4.329186 4.329186 0 0 0 3.738842 2.459764h2.902523a4.378381 4.378381 0 0 0 3.837232-2.361374 4.476772 4.476772 0 0 0 1.033101 4.427577l2.066203 2.066202a4.378381 4.378381 0 0 0 4.378381 1.033101 4.378381 4.378381 0 0 0-2.361374 3.837233v2.902522a4.27999 4.27999 0 0 0 2.312178 3.837233 4.329186 4.329186 0 0 0-4.329185 1.033101zM201.061158 730.156522a3.296085 3.296085 0 0 0 3.296084-3.296085V718.251261a3.296085 3.296085 0 1 0-6.592169 0v8.855153a3.296085 3.296085 0 0 0 3.296085 3.050108zM192.255201 731.829162a3.296085 3.296085 0 0 0 4.919529-4.673553l-6.247802-6.247802a3.296085 3.296085 0 1 0-4.673553 4.919529zM195.206918 735.961566a3.296085 3.296085 0 0 0-3.296084-3.296084h-8.855153a3.296085 3.296085 0 0 0 0 6.592169H191.861638a3.296085 3.296085 0 0 0 3.34528-3.296085zM196.781167 740.093971a3.34528 3.34528 0 0 0-4.919529 0l-6.247802 6.247802a3.296085 3.296085 0 0 0 4.919529 4.673552l6.247802-6.247802a3.34528 3.34528 0 0 0 0-4.673552zM201.011963 741.815806a3.296085 3.296085 0 0 0-3.296085 3.296084v8.855153a3.296085 3.296085 0 1 0 6.592169 0v-8.855153a3.296085 3.296085 0 0 0-3.296084-3.296084zM209.81792 740.143166a3.34528 3.34528 0 0 0-4.673553 0 3.246889 3.246889 0 0 0 0 4.624357l6.395388 6.296998a3.296085 3.296085 0 0 0 4.919529-4.673553zM219.017439 732.714677h-8.855152a3.296085 3.296085 0 1 0 0 6.592169h8.855152a3.296085 3.296085 0 0 0 0-6.592169zM205.193562 731.878357a3.34528 3.34528 0 0 0 4.673553 0l6.247802-6.247802a3.296085 3.296085 0 0 0-4.919529-4.673553l-6.247802 6.247802a3.34528 3.34528 0 0 0 0.245976 4.673553z"
    fill="#EF3FE7"  />
  <path d="M93.815422 251.19116m-8.461591 0a8.46159 8.46159 0 1 0 16.923181 0 8.46159 8.46159 0 1 0-16.923181 0Z"
        fill="#EF3FE7"  />
  <path
    d="M619.860677 69.512947c-5.805044 1.475859-11.511698 3.148499-17.169156 4.91953a309.2908 309.2908 0 0 0 296.942781 516.255392q8.707567-2.213788 17.119962-4.919529A309.339995 309.339995 0 0 0 619.860677 69.512947z"
    fill="#54FE4C"  />
  <path
    d="M770.939419 624.780207a309.241605 309.241605 0 0 1-211.146193-535.441557A309.2908 309.2908 0 1 0 890.434783 600.576123a309.094019 309.094019 0 0 1-119.495364 24.204084z"
    fill="#54FE4C"  />
  <path
    d="M638.85006 168.198703a309.536776 309.536776 0 0 0 7.034927 310.471487M577.454336 611.300697A309.241605 309.241605 0 0 0 778.76147 72.317079 309.2908 309.2908 0 1 1 457.516214 589.507182a307.962527 307.962527 0 0 0 119.938122 21.793515z"
    fill="#52D64A"  />
  <path
    d="M541.14821 318.047562a4.919529 4.919529 0 0 1-4.181599-2.312179c-19.678117-31.730963-2.50896-53.524478-1.771031-54.409993a4.919529 4.919529 0 0 1 7.674466 6.149412c-0.590344 0.787125-13.331924 17.562719 2.459764 43.095075a4.919529 4.919529 0 0 1-1.623444 6.739755 4.427576 4.427576 0 0 1-2.558156 0.73793z"
    fill="#FFFFFF"  />
  <path d="M552.709104 245.435311m-5.460677 0a5.460677 5.460677 0 1 0 10.921354 0 5.460677 5.460677 0 1 0-10.921354 0Z"
        fill="#FFFFFF"  />
  <path
    d="M422.538362 165.886524A19.678117 19.678117 0 0 1 408.320922 159.835503a19.678117 19.678117 0 0 1 0.541149-27.844535c7.62527-7.330098 15.742493-14.365025 24.007302-20.957194a19.678117 19.678117 0 0 1 24.597646 30.894643 231.891847 231.891847 0 0 0-21.301561 18.448234 19.678117 19.678117 0 0 1-13.627096 5.509873zM636.783858 698.277973A329.018112 329.018112 0 0 1 375.261686 169.674562a19.678117 19.678117 0 0 1 31.288206 23.908911 286.808552 286.808552 0 0 0-59.378717 175.725583 289.612683 289.612683 0 0 0 579.225366 0 19.678117 19.678117 0 0 1 39.356233 0 329.608455 329.608455 0 0 1-328.968916 328.968917zM927.8724 284.10281a19.678117 19.678117 0 0 1-18.546625-13.036752 289.809464 289.809464 0 0 0-410.977468-156.244247 19.678117 19.678117 0 1 1-18.841797-34.436704 329.165698 329.165698 0 0 1 466.863319 177.447418 19.678117 19.678117 0 0 1-18.497429 26.368676z"
     />
  <path
    d="M495.445784 461.550228A19.678117 19.678117 0 0 1 476.603988 447.677156c-67.987893-226.937881 82.303723-382.542589 88.551525-389.036368a19.678117 19.678117 0 0 1 27.992121 27.647754c-5.755849 5.85424-140.206582 146.011626-79.007639 350.073697a19.678117 19.678117 0 0 1-13.233533 24.597646 18.792601 18.792601 0 0 1-5.460678 0.590343zM657.839443 461.550228a19.678117 19.678117 0 0 1-5.559068-0.787124 19.678117 19.678117 0 0 1-13.331924-24.597646c19.678117-66.462839-8.953543-292.023252-21.596733-373.293875a19.678117 19.678117 0 1 1 38.86428-6.051021c1.918616 12.298823 46.538746 302.009897 20.465241 390.463032a19.678117 19.678117 0 0 1-18.841796 14.266634zM819.642758 461.550228a19.678117 19.678117 0 0 1-19.038578-24.597646c59.87067-228.364545-139.07509-357.207014-141.042902-358.486091a19.678117 19.678117 0 1 1 21.00639-33.256018 410.485515 410.485515 0 0 1 104.441604 103.310113c43.833005 62.182849 88.551525 164.36147 53.672064 298.221859a19.678117 19.678117 0 0 1-19.038578 14.807783z"
     />
  <path
    d="M322.819505 484.278453c-18.645016 0-33.993947 15.98847-35.519001 36.601297q-1.328273 17.218352-1.328272 34.781072c0 234.710737 171.937545 424.948931 384.067643 424.948931s384.116839-190.238194 384.116839-424.948931c0-11.708479-0.491953-23.318568-1.328273-34.781072-1.574249-20.612827-16.873985-36.601297-35.568196-36.601297z"
    fill="#CBF0FF"  />
  <path
    d="M1077.376892 502.480711c-1.525054-20.612827-16.873985-36.552102-35.519001-36.552102H941.105933a38.618304 38.618304 0 0 1 27.79534 35.568196q1.328273 17.218352 1.328273 34.830267c0 215.67216-145.273697 393.562335-333.445688 421.111698a348.499448 348.499448 0 0 0 57.656882 4.919529c212.130098 0 384.067644-190.238194 384.067643-424.899735q0-17.7595-1.131491-34.977853z"
    fill="#52C6FF"  />
  <path
    d="M636.783858 981.88883A444.479462 444.479462 0 0 1 206.620226 649.377853a19.678117 19.678117 0 1 1 38.077156-9.839059 405.32001 405.32001 0 0 0 797.554071-102.08023c0-10.97055-0.491953-22.137881-1.426663-33.206822a19.678117 19.678117 0 0 0-19.678117-18.49743H252.667019a19.678117 19.678117 0 0 0-19.678117 18.49743 19.678117 19.678117 0 1 1-39.356233-3.24689 59.03435 59.03435 0 0 1 59.03435-54.606774h768.233678a59.03435 59.03435 0 0 1 59.03435 54.606774c1.033101 12.102042 1.574249 24.597646 1.574249 36.453712a445.119001 445.119001 0 0 1-444.725438 444.430266z"
     />
  <path
    d="M216.459284 618.483209a19.678117 19.678117 0 0 1-19.678117-16.82479c-1.229882-8.215614-2.164593-16.578813-2.902522-24.597646a19.678117 19.678117 0 0 1 39.356234-3.44367c0.639539 7.52688 1.525054 15.15215 2.60735 22.629834a19.678117 19.678117 0 0 1-16.628008 22.285468 18.989383 18.989383 0 0 1-2.754937-0.049196z"
     />
  <path
    d="M386.724189 723.90872a9.839058 9.839058 0 0 1-6.296997-2.262984c-32.124526-26.762239-42.406342-101.096325-42.799904-104.244823a9.839058 9.839058 0 1 1 19.678117-2.656546c2.60735 19.382945 14.168244 73.792938 35.912563 91.749219a9.839058 9.839058 0 0 1 1.229882 13.873073 9.839058 9.839058 0 0 1-7.723661 3.542061z"
    fill="#FFFFFF"  />
  <path d="M345.006582 585.473168m-7.330099 0a7.330098 7.330098 0 1 0 14.660197 0 7.330098 7.330098 0 1 0-14.660197 0Z"
        fill="#FFFFFF"  />
  <path
    d="M345.006582 544.49349m-20.317656 0a20.317656 20.317656 0 1 0 40.635311 0 20.317656 20.317656 0 1 0-40.635311 0Z"
    fill="#FFFFFF"  />
  <path d="M543.017632 686.766274m-31.97694 0a31.97694 31.97694 0 1 0 63.953879 0 31.97694 31.97694 0 1 0-63.953879 0Z"
         />
  <path
    d="M511.877012 774.333894m-16.382032 0a16.382032 16.382032 0 1 0 32.764064 0 16.382032 16.382032 0 1 0-32.764064 0Z"
    fill="#58C3F9"  />
  <path
    d="M759.476916 774.333894m-16.382033 0a16.382032 16.382032 0 1 0 32.764065 0 16.382032 16.382032 0 1 0-32.764065 0Z"
    fill="#58C3F9"  />
  <path d="M723.416767 686.766274m-31.97694 0a31.97694 31.97694 0 1 0 63.953879 0 31.97694 31.97694 0 1 0-63.953879 0Z"
         />
  <path
    d="M684.798463 774.333894H590.343502c0 13.528705 11.118136 25.187989 27.155801 30.599471v-1.918616a20.317656 20.317656 0 1 1 40.635311 0v1.918616c15.545712-5.411482 26.663848-17.070766 26.663849-30.599471z"
     />
  <path
    d="M637.521787 782.697093a20.317656 20.317656 0 0 0-20.317655 20.317656v1.918616a63.953879 63.953879 0 0 0 40.241748 0v-1.918616a20.317656 20.317656 0 0 0-19.924093-20.317656z"
    fill="#F47A1E"  />
  <path
    d="M490.870622 85.649003a9.839058 9.839058 0 0 1-9.150324-6.296997l-5.559068-14.414221a9.839058 9.839058 0 0 1 18.349844-7.034926l5.559068 14.365025a9.839058 9.839058 0 0 1-5.657459 12.692385 8.904348 8.904348 0 0 1-3.542061 0.688734zM373.884218 206.029882a9.839058 9.839058 0 0 1-6.542974-2.50896l-20.317655-18.153062a9.839058 9.839058 0 1 1 13.135143-14.758588l20.317655 18.153063a9.839058 9.839058 0 0 1 0.73793 13.922267 9.839058 9.839058 0 0 1-7.330099 3.34528zM467.060101 320.507326h-0.442758l-17.218352-0.737929a9.839058 9.839058 0 1 1 0.934711-19.678117l17.218352 0.83632a9.839058 9.839058 0 0 1-0.491953 19.678117zM648.590728 156.047466h-31.386596a9.839058 9.839058 0 0 1 0-19.678117h31.386596a9.839058 9.839058 0 0 1 0 19.678117zM691.390632 249.813692a9.839058 9.839058 0 0 1-6.296998-2.312179l-21.350756-17.808695a9.839058 9.839058 0 0 1 12.593994-15.102955l21.399952 17.808696a9.839058 9.839058 0 0 1-6.346192 17.415133zM623.156762 339.939467a9.839058 9.839058 0 0 1-4.919529-18.251454L645.934182 305.01081a9.839058 9.839058 0 1 1 10.232621 16.775594l-27.893731 16.972376a9.839058 9.839058 0 0 1-5.11631 1.180687zM691.439827 399.268989h-21.399952a9.839058 9.839058 0 0 1 0-19.678117h21.399952a9.839058 9.839058 0 0 1 0 19.678117zM657.790247 69.808119a9.839058 9.839058 0 0 1-9.494691-7.428489l-6.78895-27.254192a9.839058 9.839058 0 1 1 19.087773-4.919529l6.78895 27.254192a9.839058 9.839058 0 0 1-7.182512 11.905261 10.085035 10.085035 0 0 1-2.41057 0.442757zM708.412203 69.808119a9.839058 9.839058 0 0 1-6.641365-17.119961l15.05376-13.627096a9.839058 9.839058 0 0 1 13.184338 14.758587l-14.758588 13.627096a9.839058 9.839058 0 0 1-6.838145 2.361374zM790.125583 274.263752a9.839058 9.839058 0 0 1-2.558156-19.382945l27.204997-7.280903a9.839058 9.839058 0 0 1 4.919529 18.989383l-27.204996 7.330098a11.80687 11.80687 0 0 1-2.361374 0.344367zM857.670718 339.939467h-13.430314a9.839058 9.839058 0 0 1 0-19.678117h13.430314a9.839058 9.839058 0 0 1 0 19.678117zM973.771607 396.464857h-15.594908a9.839058 9.839058 0 0 1 0-19.678117h15.594908a9.839058 9.839058 0 0 1 0 19.678117zM897.371319 180.005573a10.232621 10.232621 0 0 1-4.132405-0.885515 9.839058 9.839058 0 0 1-4.919529-13.036753l7.379294-15.98847a9.839058 9.839058 0 0 1 17.907086 8.215614l-7.379294 15.98847a9.839058 9.839058 0 0 1-8.855152 5.706654z"
     />
</svg>
