<svg class="icon" viewBox="0 0 1024 1024" version="1.1" xmlns="http://www.w3.org/2000/svg"
     width="42" height="42">
  <path
    d="M693.581 947.862H326.1c-53.63 0-107.995-22.789-129.63-81.803l-29.685-174.723c0-53.63 43.879-97.51 97.51-97.51h495.049c53.63 0 97.51 43.879 97.51 97.51L818.72 868.139c-17.536 53.934-71.508 79.723-125.139 79.723z"
    fill="#C69C6D" />
  <path
    d="M693.581 961.862H326.1c-31.07 0-60.024-7.123-83.731-20.601-27.863-15.838-47.728-39.519-59.042-70.384l-0.442-1.206-30.099-177.154v-1.181c0-61.486 50.023-111.51 111.51-111.51h495.049c61.486 0 111.51 50.023 111.51 111.51v1.492l-0.314 1.46-38.284 177.499-0.222 0.68c-9.28 28.547-28.383 51.999-55.241 67.82-23.96 14.115-52.734 21.575-83.213 21.575z m-483.53-99.449c24.375 64.46 89.191 71.449 116.048 71.449H693.58c40.906 0 94.559-18.188 111.609-69.396L842.842 689.9c-0.771-45.386-37.932-82.073-83.498-82.073h-495.05c-45.668 0-82.892 36.848-83.502 82.374l29.259 172.212z"
    fill="" />
  <path
    d="M404.723 570.434h266.925S596.102 207.79 375.139 72.79C376.637 123.309 391.667 205 397 283c5.333 102 7.723 287.434 7.723 287.434z"
    fill="#22B573" />
  <path
    d="M677.798 575.435h-278.01l-0.063-4.936c-0.024-1.854-2.45-186.504-7.717-287.238-2.601-38.024-7.631-77.819-12.069-112.929-4.642-36.722-9.026-71.407-9.796-97.394l-0.273-9.228 7.878 4.813c50.972 31.142 98.411 76.917 140.998 136.055 33.968 47.167 64.954 102.908 92.1 165.674 46.174 106.768 65.509 198.25 65.698 199.163l1.254 6.02z m-268.143-10h255.751c-5.077-21.96-24.771-101.15-63.82-191.397-41.132-95.061-112.57-221.746-221.032-291.936 1.378 24.263 5.242 54.834 9.305 86.976 4.455 35.244 9.504 75.19 12.129 113.581 4.798 91.732 7.241 252.606 7.667 282.776z"
    fill="" />
  <path d="M71.004 271S236 372.927 284 566.963h189S312.009 253 71.004 271z" fill="#22B573" />
  <path
    d="M481.183 571.964H280.086l-0.939-3.799c-24.533-99.173-80.576-173.562-123.269-218.503-46.268-48.703-87.094-74.156-87.501-74.408l-13.101-8.093 15.356-1.147c55.957-4.178 112.23 9.028 167.265 39.254 43.812 24.062 86.93 58.909 128.156 103.573 70.027 75.865 110.991 155.051 111.396 155.842l3.734 7.281z m-193.287-10h176.717c-11.731-21.146-49.189-84.934-106.065-146.51-60.836-65.864-156.564-142.085-272.26-140.15 15.872 11.314 44.856 33.803 76.84 67.47 27.682 29.139 51.78 60.599 71.624 93.503 24.127 40.009 41.996 82.274 53.144 125.687z"
    fill="" />
  <path d="M927.996 205s-148.17 241.773-196.17 435.81c-84 0-198.826-10.695-198.826-10.695S686.991 187 927.996 205z"
        fill="#22B573" />
  <path
    d="M735.74 645.81h-3.914c-83.27 0-198.14-10.609-199.29-10.717l-6.354-0.592 2.095-6.028c0.387-1.113 39.475-112.569 107.618-220.338 40.136-63.476 82.383-113.336 125.567-148.195 54.469-43.967 110.624-64.13 166.904-59.926l8.174 0.611-4.283 6.988c-0.369 0.603-37.466 61.304-79.93 144.873-39.139 77.023-90.973 189.775-115.648 289.525l-0.939 3.799z m-195.826-20.098c24.93 2.183 117.019 9.814 188.012 10.09 25.267-99.736 76.633-211.39 115.527-287.926 34.197-67.292 64.938-119.836 75.963-138.318-118.265-3.546-214.511 108.186-274.979 203.778-58.525 92.521-95.446 187.824-104.523 212.376z"
    fill="" />
  <path
    d="M903.565 693.265H123.074c-22.277 0-40.504-18.227-40.504-40.504v-45.294c0-22.277 18.227-40.504 40.504-40.504h780.491c22.277 0 40.504 18.227 40.504 40.504v45.294c0 22.278-18.227 40.504-40.504 40.504z"
    fill="#C69C6D" />
  <path
    d="M903.564 707.266h-780.49c-30.054 0-54.504-24.45-54.504-54.504v-45.294c0-30.054 24.45-54.504 54.504-54.504h780.491c30.054 0 54.504 24.45 54.504 54.504v45.294c-0.001 30.053-24.451 54.504-54.505 54.504z m-780.49-126.302c-14.614 0-26.504 11.89-26.504 26.504v45.294c0 14.614 11.89 26.504 26.504 26.504h780.491c14.614 0 26.504-11.89 26.504-26.504v-45.294c0-14.614-11.89-26.504-26.504-26.504H123.074z"
    fill="" />
  <path
    d="M223.991 395.658l-37.154-44.537c-2.114-2.534-1.77-6.337 0.764-8.451 2.534-2.114 6.337-1.77 8.451 0.764l37.154 44.537c2.114 2.534 1.77 6.337-0.764 8.451-2.534 2.114-6.337 1.77-8.451-0.764zM279.628 496.324l-25.981-51.855c-1.478-2.95-0.274-6.574 2.677-8.052 2.95-1.478 6.574-0.274 8.052 2.677l25.981 51.855c1.478 2.95 0.274 6.574-2.677 8.052-2.95 1.478-6.573 0.273-8.052-2.677zM799.811 270.228l-17.07 12.872c-2.635 1.987-6.416 1.457-8.403-1.178s-1.457-6.416 1.178-8.403l17.071-12.872c2.635-1.987 6.416-1.457 8.403 1.178 1.986 2.635 1.456 6.416-1.179 8.403zM685.266 374.758l37.321-44.397c2.123-2.526 5.928-2.855 8.454-0.732 2.526 2.123 2.855 5.928 0.732 8.454l-37.321 44.397c-2.123 2.526-5.928 2.855-8.454 0.732-2.526-2.124-2.856-5.928-0.732-8.454z"
    fill="#FFFFFF" />
  <path d="M244 416.5m-6.5 0a6.5 6.5 0 1 0 13 0 6.5 6.5 0 1 0-13 0Z" fill="#FFFFFF" />
  <path
    d="M487.82 225.809l-37.154-44.537c-2.114-2.534-1.77-6.337 0.764-8.451 2.534-2.114 6.337-1.77 8.451 0.764l37.154 44.537c2.114 2.534 1.77 6.337-0.764 8.451-2.534 2.114-6.337 1.77-8.451-0.764zM580.628 384.988l-42.798-85.421c-1.478-2.95-0.274-6.574 2.677-8.052 2.95-1.478 6.574-0.274 8.052 2.677l42.798 85.421c1.478 2.95 0.274 6.574-2.677 8.052-2.95 1.478-6.573 0.273-8.052-2.677z"
    fill="#FFFFFF" />
  <path d="M508.763 245.961m-6.5 0a6.5 6.5 0 1 0 13 0 6.5 6.5 0 1 0-13 0Z" fill="#FFFFFF" />
  <path d="M525.986 270.255m-6.5 0a6.5 6.5 0 1 0 13 0 6.5 6.5 0 1 0-13 0Z" fill="#FFFFFF" />
  <path d="M751.781 305.264m-6.5 0a6.5 6.5 0 1 0 13 0 6.5 6.5 0 1 0-13 0Z" fill="#FFFFFF" />
  <path
    d="M779.253 785.562H627.414c-4.466 0-8.119 3.654-8.119 8.119 0 4.466 3.654 8.119 8.119 8.119h151.839c4.466 0 8.119-3.654 8.119-8.119s-3.654-8.119-8.119-8.119zM779.253 762.645h-39.589c-4.466 0-8.119 3.654-8.119 8.119 0 4.466 3.654 8.119 8.119 8.119h39.589c4.466 0 8.119-3.654 8.119-8.119s-3.654-8.119-8.119-8.119zM352.881 875.52h-84.619c-4.466 0-8.119 3.654-8.119 8.119 0 4.466 3.654 8.119 8.119 8.119h84.619c4.466 0 8.119-3.654 8.119-8.119s-3.654-8.119-8.119-8.119z"
    fill="#FFFFFF" />
</svg>
